# xmcd
#
# Track frame offsets:
#	150
#	22284
#	41455
#	67191
#	80655
#	95849
#	116285
#	131715
#	149139
#	167507
#	192434
#	228493
#	243337
#	256356
#	270167
#	282244
#	296771
#
# Disc length: 4136 seconds
#
# Revision: 0
# Processed by: cddbd v1.5.1PL0 Copyright (c) Steve Scherf et al.
# Submitted via: dBpowerAMP V4.0
#
DISCID=08102611
DTITLE=BANDA DO PIRATA - AO VIVO
DYEAR=2005
DGENRE=AXÉ- FORRÓO
TTITLE0=BALANÇA BRASIL
TTITLE1=FESTA  NA BAHIA
TTITLE2=PERDIDO DE AMOR
TTITLE3=ZORRA
TTITLE4=FESTA
TTITLE5=AGAMAMOU
TTITLE6=EM NOME DO MEO NOME
TTITLE7=TEQUILA
TTITLE8=SWING DO BUM
TTITLE9=WBRASIL 
TTITLE10=PAIS TROPICAL
TTITLE11=DO GEITO QUE EU SOU
TTITLE12=JA QUE TA  GOSTOSO  DEIXA
TTITLE13=MALANDRAGEM
TTITLE14=ALO FORTALEZA
TTITLE15=ETA BICHO BOM
TTITLE16=FERRO  NA BONECA
EXTD=
EXTT0=
EXTT1=
EXTT2=
EXTT3=
EXTT4=
EXTT5=
EXTT6=
EXTT7=
EXTT8=
EXTT9=
EXTT10=
EXTT11=
EXTT12=
EXTT13=
EXTT14=
EXTT15=
EXTT16=
PLAYORDER=
